<svg width="16" height="16" viewBox="0 0 16 16" fill="none" xmlns="http://www.w3.org/2000/svg">
<path fill-rule="evenodd" clip-rule="evenodd" d="M2.83333 8C2.83333 7.72386 3.05719 7.5 3.33333 7.5H12.6667C12.9428 7.5 13.1667 7.72386 13.1667 8C13.1667 8.27614 12.9428 8.5 12.6667 8.5H3.33333C3.05719 8.5 2.83333 8.27614 2.83333 8Z" fill="#3730A3"/>
<path fill-rule="evenodd" clip-rule="evenodd" d="M7.64645 2.97982C7.84171 2.78456 8.15829 2.78456 8.35355 2.97982L13.0202 7.64649C13.2155 7.84175 13.2155 8.15833 13.0202 8.35359L8.35355 13.0203C8.15829 13.2155 7.84171 13.2155 7.64645 13.0203C7.45118 12.825 7.45118 12.5084 7.64645 12.3132L11.9596 8.00004L7.64645 3.68693C7.45118 3.49167 7.45118 3.17508 7.64645 2.97982Z" fill="#3730A3"/>
</svg>
